<?xml version="1.0" standalone="no"?>
<!DOCTYPE svg PUBLIC "-//W3C//DTD SVG 20010904//EN"
 "http://www.w3.org/TR/2001/REC-SVG-20010904/DTD/svg10.dtd">
<svg version="1.0" xmlns="http://www.w3.org/2000/svg"
 width="507.000000pt" height="404.000000pt" viewBox="0 0 507.000000 404.000000"
 preserveAspectRatio="xMidYMid meet">

<g transform="translate(0.000000,404.000000) scale(0.100000,-0.100000)"
fill="#000000" stroke="none">
<path d="M1853 4020 c-85 -22 -120 -39 -190 -91 -53 -40 -129 -136 -156 -199
l-15 -35 -1 45 c0 25 6 74 14 109 9 35 13 66 11 68 -7 7 -49 -64 -71 -117 -11
-28 -20 -82 -23 -143 -5 -103 -14 -116 -42 -61 -11 23 -15 25 -18 11 -2 -9 -8
-15 -13 -12 -13 8 -11 -9 2 -22 6 -6 9 -18 7 -27 -2 -13 -11 -11 -48 13 -67
41 -152 70 -229 77 -87 8 -98 -7 -23 -31 50 -15 152 -61 152 -68 0 -1 -42 0
-94 1 -107 4 -176 -11 -267 -59 -58 -31 -190 -156 -154 -145 61 17 209 36 284
36 l86 -1 -74 -29 c-67 -28 -186 -98 -178 -106 1 -2 30 8 63 21 78 32 193 49
271 41 69 -7 193 -42 193 -55 0 -4 -17 -12 -37 -17 -37 -10 -37 -10 42 -22
107 -16 169 -40 214 -80 l36 -33 -42 20 c-173 84 -407 88 -579 9 l-49 -23 85
-3 85 -3 -70 -23 c-101 -32 -191 -83 -250 -141 -47 -46 -111 -133 -103 -140 2
-2 37 22 78 52 76 56 150 99 150 87 0 -4 -18 -26 -39 -50 -43 -46 -87 -127
-117 -214 -23 -68 -25 -250 -3 -319 l15 -45 33 80 c50 121 155 303 168 291 2
-3 -3 -39 -11 -81 -9 -41 -16 -112 -15 -158 l1 -83 12 55 c40 179 123 314 259
422 27 21 53 38 57 38 5 0 3 -21 -5 -47 -8 -26 -13 -48 -11 -50 2 -2 16 15 32
38 67 97 253 230 318 228 20 0 20 -1 2 -12 -228 -145 -339 -309 -371 -547 l-6
-45 51 85 c29 47 49 76 45 65 -49 -147 -53 -298 -12 -414 41 -115 48 -112 41
19 -3 66 -2 126 3 140 10 23 10 23 17 -14 16 -86 115 -255 171 -292 13 -8 30
-35 39 -59 l15 -45 -27 -12 c-28 -14 -41 -53 -24 -70 19 -19 62 1 76 34 8 18
16 26 20 19 4 -6 4 -17 1 -23 -4 -7 0 -5 8 5 8 9 21 17 29 17 8 0 19 5 26 12
17 17 27 1 11 -19 -11 -15 -10 -15 9 1 29 25 41 12 16 -17 -11 -12 -26 -31
-34 -42 -7 -11 5 0 27 25 47 51 69 50 26 -1 -32 -38 -62 -79 -47 -64 41 41
143 155 122 136 -39 -34 -48 -18 -12 22 23 26 24 28 3 9 -24 -21 -49 -29 -49
-16 0 4 17 22 38 41 l37 35 -42 -31 -42 -32 -32 48 c-41 59 -129 231 -129 252
0 9 28 -11 68 -50 37 -36 83 -76 102 -89 19 -13 37 -25 40 -27 2 -2 -16 -22
-40 -45 l-45 -40 47 36 c73 57 94 46 28 -15 l-55 -50 55 43 c30 24 66 51 80
61 22 16 22 16 2 7 -34 -17 -49 -1 -21 23 l24 19 -26 -15 c-26 -15 -27 -15
-72 31 -103 106 -172 262 -183 410 l-5 77 42 -45 c23 -25 38 -36 34 -25 -51
136 -70 303 -45 394 l12 44 34 -49 c123 -172 364 -596 343 -603 -6 -2 -16 2
-22 8 -14 14 -54 15 -62 1 -3 -5 6 -27 20 -49 30 -49 30 -53 5 -76 -11 -10
-20 -31 -20 -47 0 -37 29 -38 70 0 l31 27 -35 55 c-20 30 -36 57 -36 60 0 4
16 4 35 2 30 -4 38 -10 51 -41 12 -29 13 -40 3 -56 -11 -18 -10 -19 4 -7 13
11 17 10 27 -7 6 -12 9 -21 6 -21 -3 0 2 -12 10 -27 13 -25 12 -29 -2 -38 -37
-23 -78 -57 -62 -52 9 3 19 0 22 -9 3 -8 0 -14 -6 -14 -7 0 -3 -7 8 -15 14
-10 15 -14 5 -15 -11 0 -9 -4 5 -15 19 -15 19 -15 -1 -30 -38 -28 -45 -36 -45
-55 0 -26 36 -35 65 -16 27 18 32 47 15 90 -7 19 -6 26 3 26 8 0 7 3 -2 9 -24
15 -23 47 2 58 21 10 25 8 34 -18 10 -25 9 -29 -5 -30 -11 0 -13 -2 -4 -6 10
-4 10 -8 2 -18 -7 -8 -10 -24 -8 -37 2 -18 9 -23 32 -23 29 -1 31 -4 68 -115
79 -234 169 -623 148 -644 -6 -6 -26 -6 -61 2 -62 15 -113 15 -159 2 -25 -8
-57 -7 -110 1 -63 10 -88 9 -152 -4 -58 -12 -86 -13 -115 -5 -20 5 -66 8 -101
6 l-64 -4 4 90 c5 101 28 164 66 181 12 5 22 16 22 23 0 21 -124 74 -177 75
-46 2 -48 1 -45 -23 2 -14 3 -36 2 -50 0 -14 -1 -64 -2 -113 -1 -67 -4 -84
-13 -75 -19 21 -47 140 -36 151 11 11 3 39 -9 32 -5 -3 -8 7 -7 22 1 20 -2 27
-13 25 -12 -3 -13 -1 -2 9 17 18 15 39 -3 39 -11 0 -13 8 -8 30 4 24 2 30 -11
30 -12 0 -15 8 -14 33 2 24 -1 31 -12 29 -12 -3 -13 -1 -2 9 17 18 15 39 -5
39 -13 0 -14 3 -6 11 13 13 6 39 -11 39 -7 0 -20 25 -31 56 -10 31 -31 69 -46
85 -26 28 -29 29 -111 26 -46 -2 -94 -10 -107 -17 -22 -11 -23 -13 -6 -22 10
-6 42 -7 77 -4 68 8 89 -3 114 -62 35 -85 60 -322 34 -322 -5 0 -10 -7 -10
-15 0 -8 5 -15 11 -15 8 0 8 -5 -1 -15 -9 -11 -9 -19 -2 -28 6 -7 9 -23 5 -35
-3 -13 -1 -22 6 -22 6 0 11 -14 11 -31 l0 -32 -35 46 c-24 32 -55 55 -101 78
-59 29 -76 33 -148 32 -105 0 -177 -27 -249 -93 -56 -51 -106 -133 -128 -210
-14 -49 -24 -59 -54 -60 -11 0 -46 -11 -77 -24 -161 -66 -273 -223 -293 -409
l-7 -66 -90 -32 c-49 -18 -85 -35 -81 -39 4 -4 49 -22 98 -39 110 -39 108 -38
130 -81 56 -112 157 -199 282 -241 148 -50 358 -19 488 72 l59 41 55 -11 c75
-15 128 -14 190 5 53 15 53 15 91 -11 76 -53 175 -68 266 -40 26 8 51 11 54 6
3 -5 113 0 245 11 202 17 253 18 320 8 61 -9 95 -9 142 -1 47 9 78 9 127 0 48
-9 78 -9 119 -1 37 7 67 8 89 2 101 -30 232 9 331 98 l37 34 0 -35 c0 -56 37
-159 77 -217 73 -104 188 -157 318 -147 38 3 84 11 100 18 88 38 158 110 184
189 11 35 11 35 73 37 36 0 87 10 118 22 37 14 78 21 127 21 40 0 93 7 118 16
44 14 50 14 108 -6 79 -27 207 -37 278 -20 147 34 279 147 352 302 25 51 50
114 57 140 12 45 11 49 -19 102 -17 30 -47 68 -65 84 l-33 29 19 24 c72 90 90
221 42 317 -41 83 -119 137 -216 148 -29 3 -70 2 -91 -4 -35 -10 -44 -7 -110
28 -84 45 -173 65 -256 57 l-58 -5 -7 91 c-3 49 -6 121 -6 158 0 37 -4 70 -9
73 -5 4 -49 -50 -97 -119 -48 -69 -92 -125 -97 -125 -4 0 -78 39 -163 86 -85
48 -157 84 -160 82 -2 -3 6 -81 20 -174 13 -93 23 -170 21 -172 -1 -1 -24 8
-51 20 -89 40 -234 36 -343 -9 -10 -4 -12 2 -6 25 7 36 18 31 -158 68 -117 24
-136 25 -203 15 -41 -6 -91 -18 -110 -26 l-36 -15 7 43 c27 164 108 418 191
596 56 121 69 114 69 -35 0 -70 3 -98 9 -84 30 68 36 -47 6 -141 -10 -35 -34
-84 -51 -108 -28 -37 -29 -42 -11 -32 12 7 40 35 62 62 22 28 40 47 40 41 0
-16 -37 -117 -59 -160 -12 -23 -18 -42 -13 -42 19 0 101 60 125 92 36 46 66
117 67 153 1 47 20 9 20 -40 0 -55 15 -77 24 -35 10 53 6 132 -9 175 -20 53
-19 55 11 20 25 -29 25 -29 19 -5 -26 97 -97 185 -195 240 -42 24 -48 30 -25
25 47 -10 108 -42 155 -82 30 -26 39 -31 31 -16 -17 32 -14 35 20 18 56 -29
108 -86 145 -158 36 -71 36 -71 30 -29 -3 23 -13 61 -20 83 l-14 40 20 -18
c12 -10 42 -50 68 -90 46 -70 48 -71 53 -43 16 76 -35 215 -98 267 -28 25 -29
26 -5 18 14 -4 45 -19 69 -33 40 -23 43 -24 33 -5 -24 45 -114 96 -196 113
-38 7 -39 8 -9 9 17 1 35 6 38 11 3 6 4 10 2 10 -2 0 -29 5 -60 11 -69 12
-146 0 -224 -36 -29 -13 -51 -19 -47 -14 9 15 105 59 129 59 19 1 19 1 2 14
-16 12 -14 15 25 31 55 22 152 30 203 17 35 -10 38 -9 22 3 -11 7 -41 19 -68
26 -67 17 -44 29 61 29 79 1 84 2 65 16 -11 9 -44 28 -73 41 -45 21 -65 25
-123 21 -38 -2 -69 -3 -69 -1 0 1 19 14 43 28 l42 27 -39 -6 c-22 -3 -62 -19
-89 -36 -44 -27 -49 -29 -44 -11 6 23 -12 24 -30 1 -11 -13 -12 -11 -13 9 0
43 -22 100 -51 133 l-29 33 15 -44 c22 -64 20 -65 -33 -12 -50 50 -119 81
-176 81 l-31 -1 50 -47 c28 -26 59 -57 70 -70 l19 -23 -55 25 c-72 34 -94 33
-38 -2 51 -33 96 -83 116 -129 17 -42 17 -54 -2 -47 -9 4 -4 -13 15 -48 16
-29 29 -62 29 -73 0 -11 -9 3 -20 31 -23 62 -87 137 -148 176 -59 37 -72 36
-35 -3 l29 -31 -53 26 c-66 33 -146 49 -187 37 -16 -5 -23 -10 -14 -10 8 -1
40 -9 70 -18 l54 -17 -60 -7 c-33 -4 -67 -9 -75 -11 -11 -2 -16 12 -21 57 -14
113 -62 220 -140 308 -22 26 -38 47 -35 47 16 0 107 -52 164 -94 34 -25 62
-42 62 -37 0 24 -96 134 -153 175 -73 52 -109 69 -217 103 l-75 24 100 -5 100
-4 -61 29 c-168 81 -390 74 -582 -18 -41 -19 -76 -32 -79 -29 -10 9 118 95
174 116 76 28 169 50 217 50 49 0 42 8 -21 24 l-48 13 40 20 c142 73 340 80
513 18 60 -22 62 -22 45 -3 -20 23 -158 91 -220 109 -24 7 -43 16 -43 21 0 13
205 9 315 -7 55 -7 101 -12 103 -11 8 9 -126 117 -178 145 -113 61 -277 86
-389 60 -24 -5 -46 -8 -48 -5 -7 7 98 62 177 92 l74 29 -44 3 c-117 9 -281
-57 -390 -155 -68 -61 -68 -60 -10 27 54 82 54 82 13 58 -21 -12 -74 -58 -118
-102 -63 -63 -90 -100 -122 -166 -41 -83 -72 -185 -73 -245 l-1 -30 -10 25
c-19 46 21 202 72 288 l22 37 -43 -40 -43 -40 7 42 c21 140 105 276 231 376
84 66 -11 28 -124 -50 -35 -24 -65 -42 -67 -40 -8 8 98 156 161 225 37 39 63
72 58 71 -4 0 -40 -9 -80 -19z m35 -1053 c30 -18 89 -69 133 -114 43 -46 79
-81 79 -79 0 2 -7 23 -15 46 -8 24 -13 45 -11 48 9 9 94 -59 157 -125 88 -93
119 -156 121 -247 l1 -71 6 60 6 60 18 -56 c9 -31 17 -67 17 -80 0 -13 5 -31
11 -39 16 -23 3 183 -16 254 -9 32 -14 60 -12 63 7 6 127 -177 133 -204 4 -15
-2 -32 -19 -52 -14 -17 -28 -27 -31 -24 -3 4 -6 -5 -6 -18 0 -14 3 -19 8 -13
4 6 18 14 32 18 25 6 25 6 3 -5 -27 -14 -29 -27 -8 -56 14 -21 14 -26 -10 -73
-14 -28 -42 -70 -62 -93 l-37 -42 37 35 c20 19 50 60 66 90 24 43 31 51 37 37
4 -13 0 -23 -15 -33 -13 -10 -21 -26 -21 -45 0 -24 4 -29 24 -29 30 0 56 24
56 52 0 12 -12 41 -26 65 -25 42 -26 69 -3 46 6 -6 18 -9 26 -6 8 3 19 0 23
-7 6 -9 10 -7 15 8 12 41 144 65 230 41 38 -11 39 -11 16 -24 -21 -11 -17 -13
47 -17 43 -3 88 -14 116 -28 26 -12 46 -24 44 -25 -2 -2 -28 3 -58 11 -79 22
-182 14 -253 -19 -66 -30 -73 -42 -19 -33 l37 6 -30 -16 c-66 -36 -106 -69
-135 -112 -41 -61 -38 -73 8 -31 69 65 74 65 39 -2 -29 -56 -32 -71 -31 -143
0 -45 6 -94 13 -111 l13 -30 27 75 c15 41 34 89 44 105 16 30 16 30 17 -55 l2
-85 13 63 c19 87 46 139 99 191 43 42 44 42 39 14 l-5 -28 20 30 c23 36 121
129 128 122 3 -3 -12 -31 -32 -63 -133 -208 -238 -537 -285 -892 -10 -80 -15
-95 -33 -102 -12 -4 -22 -7 -23 -6 -2 2 -25 85 -53 187 -57 210 -137 451 -204
618 -45 110 -46 115 -29 135 16 18 16 19 1 7 -19 -14 -38 -7 -38 13 0 7 18 32
40 54 22 23 44 52 50 65 7 14 3 11 -12 -8 -12 -16 -36 -43 -51 -59 -28 -28
-30 -29 -43 -11 -12 16 -10 23 17 59 l31 41 -31 -35 c-26 -29 -33 -32 -41 -20
-13 21 -12 43 3 60 10 12 9 12 -6 1 -9 -8 -19 -12 -21 -10 -9 13 -46 91 -46
100 0 5 -5 15 -10 22 -6 7 -46 71 -89 144 -107 179 -205 313 -345 472 l-21 23
40 -16 c22 -9 64 -31 93 -49z m772 -557 c-38 -20 -46 -19 -37 5 4 9 19 15 39
15 l33 -1 -35 -19z m-96 -16 c11 -28 7 -35 -14 -24 -23 12 -27 40 -6 40 8 0
17 -7 20 -16z m-938 -461 c-3 -8 -6 -20 -7 -26 -1 -14 -17 22 -18 40 -1 7 6
10 15 6 8 -3 13 -12 10 -20z m2437 -596 c21 -26 31 -51 35 -86 9 -94 -97 -266
-221 -359 l-28 -21 20 -76 c26 -93 44 -130 84 -173 44 -46 80 -44 106 5 34 68
88 99 189 109 l57 7 112 150 112 151 -32 12 c-192 73 -220 75 -278 27 l-29
-25 0 54 c1 98 56 175 143 199 62 17 126 -2 231 -67 l89 -56 39 22 c54 30 119
25 132 -11 20 -59 -28 -128 -109 -157 -46 -16 -55 -26 -114 -112 -35 -52 -86
-125 -112 -163 -27 -37 -49 -71 -49 -75 0 -15 126 -72 159 -72 60 0 118 36
162 101 40 59 52 67 78 50 17 -11 9 -38 -37 -120 -99 -180 -241 -226 -425
-139 l-78 38 -37 -25 c-47 -31 -120 -50 -155 -41 -15 3 -37 16 -48 27 l-20 20
-20 -25 c-24 -30 -96 -66 -133 -66 -78 0 -131 81 -163 248 -9 50 -21 92 -26
92 -5 0 -34 -25 -66 -55 -94 -89 -133 -183 -111 -265 9 -32 15 -40 35 -40 13
0 37 -12 54 -26 37 -31 41 -75 12 -132 -23 -44 -55 -62 -114 -62 -57 0 -100
29 -127 85 -19 40 -22 58 -18 133 5 98 26 158 93 262 39 60 149 175 204 212
21 15 23 22 17 61 -18 121 -91 181 -218 182 -66 0 -76 3 -60 19 4 4 7 13 7 19
0 21 94 76 141 83 116 17 209 -61 254 -213 7 -24 17 -43 21 -43 4 0 22 12 41
28 87 73 130 152 132 247 0 36 4 65 9 65 4 0 7 9 7 21 0 28 18 20 53 -24z
m-946 -19 c-33 -88 -207 -644 -207 -662 0 -63 63 -25 108 64 28 58 46 69 75
48 16 -12 14 -19 -26 -99 -74 -148 -139 -209 -222 -209 -37 0 -85 35 -85 61 0
7 -12 1 -27 -13 -38 -35 -66 -48 -103 -48 -42 0 -67 15 -86 51 l-16 31 -26
-25 c-85 -79 -197 -76 -218 7 -7 30 15 110 56 201 17 37 30 75 30 86 0 22 -32
26 -48 7 -10 -14 -105 -237 -117 -278 -18 -59 -33 -70 -97 -70 -60 0 -60 0
-54 27 4 14 38 92 77 174 69 147 81 189 55 189 -14 0 -44 -56 -66 -125 -30
-95 -106 -215 -159 -251 -49 -33 -113 -33 -146 1 -14 13 -25 31 -25 40 0 22
-13 19 -41 -11 -38 -41 -120 -84 -161 -84 -50 0 -68 21 -68 78 0 50 46 154
108 244 47 69 63 106 51 114 -16 9 -33 -13 -59 -79 -25 -63 -44 -77 -105 -77
-30 0 -36 -6 -64 -55 -84 -148 -202 -209 -308 -159 -118 57 -97 266 41 413 65
68 116 95 183 95 84 0 143 -60 143 -146 0 -33 3 -38 23 -38 18 0 28 10 43 42
43 96 120 144 186 117 62 -26 58 -83 -17 -214 -25 -44 -48 -89 -51 -100 -13
-56 48 -57 89 -2 14 17 43 91 66 164 24 72 49 137 58 144 8 7 41 15 73 17 l59
4 -55 -166 c-31 -92 -53 -173 -50 -181 9 -24 42 -17 69 14 13 16 41 72 61 124
43 112 69 153 115 184 57 39 151 24 151 -24 0 -19 14 -16 56 12 53 36 100 42
132 18 46 -34 41 -75 -22 -197 -31 -59 -56 -113 -56 -121 0 -23 18 -27 50 -10
24 13 41 38 79 119 71 151 147 226 228 226 16 0 38 -6 49 -14 20 -14 22 -10
64 127 67 221 69 224 169 226 31 1 42 -3 38 -11z m-2023 -59 c46 -54 28 -155
-46 -271 -29 -47 -30 -49 -17 -100 8 -29 14 -98 14 -153 0 -93 -2 -105 -34
-173 -59 -126 -147 -186 -291 -199 -120 -10 -219 39 -274 137 -27 48 -31 64
-31 130 2 267 287 413 417 215 11 -16 18 -23 15 -14 -18 55 -29 149 -25 212 4
58 12 86 39 137 43 82 83 110 155 110 46 0 55 -4 78 -31z"/>
<path d="M2231 2634 c0 -11 3 -14 6 -6 3 7 2 16 -1 19 -3 4 -6 -2 -5 -13z"/>
<path d="M2242 2580 c0 -14 2 -19 5 -12 2 6 2 18 0 25 -3 6 -5 1 -5 -13z"/>
<path d="M2291 2584 c0 -11 3 -14 6 -6 3 7 2 16 -1 19 -3 4 -6 -2 -5 -13z"/>
<path d="M2462 2490 c0 -14 2 -19 5 -12 2 6 2 18 0 25 -3 6 -5 1 -5 -13z"/>
<path d="M2242 2480 c0 -14 2 -19 5 -12 2 6 2 18 0 25 -3 6 -5 1 -5 -13z"/>
<path d="M2231 2443 c-1 -6 -4 -20 -7 -30 -5 -17 -5 -17 6 0 6 10 9 23 6 30
-3 9 -5 9 -5 0z"/>
<path d="M2291 2434 c0 -11 3 -14 6 -6 3 7 2 16 -1 19 -3 4 -6 -2 -5 -13z"/>
<path d="M2341 2394 c0 -11 3 -14 6 -6 3 7 2 16 -1 19 -3 4 -6 -2 -5 -13z"/>
<path d="M2261 2353 c-10 -26 -10 -27 4 -9 8 11 15 23 15 28 0 15 -7 8 -19
-19z"/>
<path d="M2317 2335 c-9 -19 -15 -35 -12 -35 7 0 37 61 33 66 -3 2 -12 -12
-21 -31z"/>
<path d="M1320 881 c0 -13 50 -51 66 -51 20 0 17 24 -4 43 -20 18 -62 23 -62
8z"/>
<path d="M2756 849 c-42 -33 -69 -96 -70 -164 -1 -58 0 -60 25 -63 19 -2 33 4
47 22 27 34 67 185 55 205 -15 23 -28 23 -57 0z"/>
<path d="M1235 778 c-4 -9 -5 -35 -3 -59 2 -36 8 -46 30 -57 24 -11 33 -11 62
3 61 29 63 41 9 65 -26 11 -58 30 -70 42 -19 18 -23 19 -28 6z"/>
<path d="M987 1174 c-10 -10 -9 -122 2 -128 15 -9 43 57 39 94 -3 33 -24 51
-41 34z"/>
<path d="M549 781 c-37 -37 -39 -94 -5 -166 42 -92 128 -140 206 -116 50 15
99 56 116 98 15 35 17 122 4 163 -7 21 -8 17 -9 -20 -1 -63 -51 -164 -93 -190
-40 -24 -146 -30 -113 -7 10 8 15 19 12 24 -4 6 0 13 8 16 20 8 36 76 26 117
-11 48 -27 76 -53 94 -34 24 -66 19 -99 -13z"/>
<path d="M2903 3199 c20 -5 48 -16 61 -24 28 -19 56 -81 57 -128 l0 -32 22 30
c37 50 83 91 129 113 l43 21 -38 1 c-43 0 -96 -19 -115 -43 -12 -14 -18 -11
-56 29 -40 41 -46 44 -92 43 l-49 -1 38 -9z"/>
<path d="M2655 3010 c3 -5 14 -10 24 -10 39 0 80 -62 82 -123 0 -29 1 -30 12
-13 28 45 70 85 110 105 l42 22 -48 -4 c-32 -3 -56 -12 -72 -27 l-23 -22 -12
22 c-6 11 -26 30 -43 40 -33 21 -83 27 -72 10z"/>
<path d="M3247 2931 c48 -23 69 -50 79 -105 6 -37 8 -38 21 -20 31 44 70 78
108 95 l40 19 -41 0 c-26 0 -53 -8 -75 -23 l-33 -22 -31 33 c-21 23 -41 34
-70 38 l-40 4 42 -19z"/>
<path d="M1817 2568 c-8 -12 -18 -33 -22 -45 -5 -17 -14 -23 -36 -23 -37 0
-64 -14 -73 -37 -6 -16 -6 -16 12 0 26 23 74 21 107 -5 l27 -21 -6 39 c-4 21
-2 54 4 73 12 42 7 51 -13 19z"/>
<path d="M2030 2145 c-14 -8 -20 -14 -14 -15 5 0 19 7 30 15 24 18 16 19 -16
0z"/>
<path d="M1904 2124 c-18 -14 -18 -15 4 -4 12 6 22 13 22 15 0 8 -5 6 -26 -11z"/>
<path d="M2070 2120 c-8 -5 -10 -10 -5 -10 6 0 17 5 25 10 8 5 11 10 5 10 -5
0 -17 -5 -25 -10z"/>
<path d="M1938 2104 c-39 -21 -35 -28 5 -8 37 19 44 24 31 24 -5 -1 -21 -8
-36 -16z"/>
<path d="M1944 2064 c-18 -14 -18 -14 6 -3 31 14 36 19 24 19 -6 0 -19 -7 -30
-16z"/>
<path d="M1948 2029 c-21 -11 -38 -22 -38 -24 0 -5 79 32 89 41 12 11 -18 1
-51 -17z"/>
<path d="M2010 2020 c-8 -5 -10 -10 -5 -10 6 0 17 5 25 10 8 5 11 10 5 10 -5
0 -17 -5 -25 -10z"/>
<path d="M1954 1994 c-18 -14 -18 -14 6 -3 31 14 36 19 24 19 -6 0 -19 -7 -30
-16z"/>
<path d="M1869 1979 l-24 -20 28 17 c15 9 27 18 27 20 0 8 -8 4 -31 -17z"/>
<path d="M2020 1990 c-8 -5 -10 -10 -5 -10 6 0 17 5 25 10 8 5 11 10 5 10 -5
0 -17 -5 -25 -10z"/>
<path d="M1944 1954 c-18 -14 -18 -14 6 -3 31 14 36 19 24 19 -6 0 -19 -7 -30
-16z"/>
<path d="M1851 1894 c-33 -25 -75 -64 -92 -87 -27 -35 -23 -32 25 16 32 32 75
69 97 84 36 23 46 33 35 33 -2 0 -31 -20 -65 -46z"/>
<path d="M1606 1805 c-9 -26 -7 -32 5 -12 6 10 9 21 6 23 -2 3 -7 -2 -11 -11z"/>
<path d="M1650 1779 c-12 -23 -20 -43 -18 -45 3 -2 14 17 26 41 27 56 20 60
-8 4z"/>
<path d="M1655 1739 c-9 -17 -15 -33 -13 -35 3 -2 12 12 21 31 21 43 13 47 -8
4z"/>
<path d="M1670 1719 c-12 -23 -20 -43 -18 -45 3 -2 14 17 26 41 27 56 20 60
-8 4z"/>
<path d="M1770 1750 c-13 -8 -11 -17 14 -61 25 -46 27 -53 12 -61 -22 -12 -37
-43 -30 -62 14 -37 84 -4 84 39 0 10 -14 40 -31 68 l-30 50 26 -7 c42 -11 51
5 14 25 -40 21 -40 21 -59 9z"/>
<path d="M1616 1705 c-3 -9 -6 -22 -5 -28 0 -7 5 -1 10 12 5 13 8 26 5 28 -2
2 -6 -3 -10 -12z"/>
<path d="M1571 1684 c0 -11 3 -14 6 -6 3 7 2 16 -1 19 -3 4 -6 -2 -5 -13z"/>
<path d="M1586 1625 c3 -22 10 -44 14 -49 5 -5 5 8 -1 30 -15 57 -20 64 -13
19z"/>
<path d="M1626 1640 c11 -40 25 -60 18 -25 -4 20 -3 26 4 17 7 -11 11 -10 16
4 3 9 4 19 1 22 -3 3 -5 -1 -5 -9 0 -11 -2 -11 -10 1 -9 13 -10 13 -10 0 0
-13 -1 -13 -11 0 -8 11 -9 9 -3 -10z"/>
<path d="M1562 1610 c0 -19 2 -27 5 -17 2 9 2 25 0 35 -3 9 -5 1 -5 -18z"/>
<path d="M1611 1620 c0 -14 28 -72 29 -59 0 4 -7 22 -15 40 -8 19 -14 27 -14
19z"/>
</g>
</svg>
